<?xml version="1.0" standalone="no"?>
<!DOCTYPE svg PUBLIC "-//W3C//DTD SVG 1.1//EN"
"http://www.w3.org/Graphics/SVG/1.1/DTD/svg11.dtd">
<svg height="600" version="1.1" width="800" xmlns="http://www.w3.org/2000/svg"><g><rect fill="#f9f9f9" height="600" width="800" x="0" y="0" /><g transform="translate(40 40)"><g transform="translate(120 0)"><text fill="#333" font-family="Monaco" font-size="16" x="0" y="0">Total Scores (Higher is better)</text></g><g transform="translate(0 20)"><g transform="translate(120 0)"><g class="axis bottom"><g class="tick"><line stroke="#eee" stroke-width="1" x1="200.0000000000000000000000000" x2="200.0000000000000000000000000" y1="0" y2="482.0" /><text dy="1em" fill="#9c9c9c" font-family="Monaco" text-anchor="middle" x="200.0000000000000000000000000" y="486.0">20</text></g><g class="tick"><line stroke="#eee" stroke-width="1" x1="400.0000000000000000000000000" x2="400.0000000000000000000000000" y1="0" y2="482.0" /><text dy="1em" fill="#9c9c9c" font-family="Monaco" text-anchor="middle" x="400.0000000000000000000000000" y="486.0">40</text></g><g class="tick"><line stroke="#eee" stroke-width="1" x1="600" x2="600" y1="0" y2="482.0" /><text dy="1em" fill="#9c9c9c" font-family="Monaco" text-anchor="middle" x="600" y="486.0">60</text></g><g class="tick"><line stroke="#a8a8a8" stroke-width="1" x1="0" x2="0" y1="0" y2="482.0" /><text dy="1em" fill="#9c9c9c" font-family="Monaco" text-anchor="middle" x="0" y="486.0">0</text></g></g><g class="axis left"><g class="tick"><line stroke="#eee" stroke-width="1" x1="-4" x2="600.0" y1="448.125" y2="448.125" /><text dy="0.32em" fill="#9c9c9c" font-family="Monaco" text-anchor="end" x="-8" y="448.125">Adam C Johnson</text></g><g class="tick"><line stroke="#eee" stroke-width="1" x1="-4" x2="600.0" y1="388.375" y2="388.375" /><text dy="0.32em" fill="#9c9c9c" font-family="Monaco" text-anchor="end" x="-8" y="388.375">Ozymandias</text></g><g class="tick"><line stroke="#eee" stroke-width="1" x1="-4" x2="600.0" y1="328.625" y2="328.625" /><text dy="0.32em" fill="#9c9c9c" font-family="Monaco" text-anchor="end" x="-8" y="328.625">Kyle</text></g><g class="tick"><line stroke="#eee" stroke-width="1" x1="-4" x2="600.0" y1="268.875" y2="268.875" /><text dy="0.32em" fill="#9c9c9c" font-family="Monaco" text-anchor="end" x="-8" y="268.875">Kent Johnson</text></g><g class="tick"><line stroke="#eee" stroke-width="1" x1="-4" x2="600.0" y1="209.125" y2="209.125" /><text dy="0.32em" fill="#9c9c9c" font-family="Monaco" text-anchor="end" x="-8" y="209.125">Andrew</text></g><g class="tick"><line stroke="#eee" stroke-width="1" x1="-4" x2="600.0" y1="149.375" y2="149.375" /><text dy="0.32em" fill="#9c9c9c" font-family="Monaco" text-anchor="end" x="-8" y="149.375">Jessica</text></g><g class="tick"><line stroke="#eee" stroke-width="1" x1="-4" x2="600.0" y1="89.625" y2="89.625" /><text dy="0.32em" fill="#9c9c9c" font-family="Monaco" text-anchor="end" x="-8" y="89.625">August</text></g><g class="tick"><line stroke="#eee" stroke-width="1" x1="-4" x2="600.0" y1="29.875" y2="29.875" /><text dy="0.32em" fill="#9c9c9c" font-family="Monaco" text-anchor="end" x="-8" y="29.875">Chad</text></g></g><g><g class="series bars"><rect fill="rgb(183, 235, 118)" height="53.7750" width="550.0000000000000000000000000" x="0" y="421.2375" /><rect fill="rgb(72, 34, 233)" height="53.7750" width="550.0000000000000000000000000" x="0" y="361.4875" /><rect fill="rgb(48, 237, 132)" height="53.7750" width="550.0000000000000000000000000" x="0" y="301.7375" /><rect fill="rgb(89, 10, 41)" height="53.7750" width="510.00" x="0" y="241.9875" /><rect fill="rgb(31, 108, 229)" height="53.7750" width="500.0000000000000000000000000" x="0" y="182.2375" /><rect fill="rgb(90, 74, 184)" height="53.7750" width="490.0000000000000000000000000" x="0" y="122.4875" /><rect fill="rgb(31, 205, 143)" height="53.7750" width="490.0000000000000000000000000" x="0" y="62.7375" /><rect fill="rgb(207, 98, 122)" height="53.7750" width="440.0000000000000000000000000" x="0" y="2.9875" /></g></g></g></g></g></g></svg>