<?xml version="1.0" standalone="no"?>
<!DOCTYPE svg PUBLIC "-//W3C//DTD SVG 1.1//EN"
"http://www.w3.org/Graphics/SVG/1.1/DTD/svg11.dtd">
<svg height="600" version="1.1" width="800" xmlns="http://www.w3.org/2000/svg"><g><rect fill="#f9f9f9" height="600" width="800" x="0" y="0" /><g transform="translate(40 40)"><g transform="translate(56 0)"><text fill="#333" font-family="Monaco" font-size="16" x="0" y="0">Winning Hill Points Allocation for Adam C Johnson</text></g><g transform="translate(0 20)"><g transform="translate(56 0)"><g class="axis bottom"><g class="tick"><line stroke="#eee" stroke-width="1" x1="166.00" x2="166.00" y1="0" y2="482.0" /><text dy="1em" fill="#9c9c9c" font-family="Monaco" text-anchor="middle" x="166.00" y="486.0">10</text></g><g class="tick"><line stroke="#eee" stroke-width="1" x1="332.0" x2="332.0" y1="0" y2="482.0" /><text dy="1em" fill="#9c9c9c" font-family="Monaco" text-anchor="middle" x="332.0" y="486.0">20</text></g><g class="tick"><line stroke="#eee" stroke-width="1" x1="498.00" x2="498.00" y1="0" y2="482.0" /><text dy="1em" fill="#9c9c9c" font-family="Monaco" text-anchor="middle" x="498.00" y="486.0">30</text></g><g class="tick"><line stroke="#eee" stroke-width="1" x1="664" x2="664" y1="0" y2="482.0" /><text dy="1em" fill="#9c9c9c" font-family="Monaco" text-anchor="middle" x="664" y="486.0">40</text></g><g class="tick"><line stroke="#a8a8a8" stroke-width="1" x1="0" x2="0" y1="0" y2="482.0" /><text dy="1em" fill="#9c9c9c" font-family="Monaco" text-anchor="middle" x="0" y="486.0">0</text></g></g><g class="axis left"><g class="tick"><line stroke="#eee" stroke-width="1" x1="-4" x2="664.0" y1="430.2" y2="430.2" /><text dy="0.32em" fill="#9c9c9c" font-family="Monaco" text-anchor="end" x="-8" y="430.2">Hill 1</text></g><g class="tick"><line stroke="#eee" stroke-width="1" x1="-4" x2="664.0" y1="334.6" y2="334.6" /><text dy="0.32em" fill="#9c9c9c" font-family="Monaco" text-anchor="end" x="-8" y="334.6">Hill 2</text></g><g class="tick"><line stroke="#eee" stroke-width="1" x1="-4" x2="664.0" y1="239.0" y2="239.0" /><text dy="0.32em" fill="#9c9c9c" font-family="Monaco" text-anchor="end" x="-8" y="239.0">Hill 3</text></g><g class="tick"><line stroke="#eee" stroke-width="1" x1="-4" x2="664.0" y1="143.4" y2="143.4" /><text dy="0.32em" fill="#9c9c9c" font-family="Monaco" text-anchor="end" x="-8" y="143.4">Hill 4</text></g><g class="tick"><line stroke="#eee" stroke-width="1" x1="-4" x2="664.0" y1="47.8" y2="47.8" /><text dy="0.32em" fill="#9c9c9c" font-family="Monaco" text-anchor="end" x="-8" y="47.8">Hill 5</text></g></g><g><g class="series bars"><rect fill="rgb(179, 59, 154)" height="86.04" width="16.600" x="0" y="387.18" /><rect fill="rgb(150, 152, 111)" height="86.04" width="33.20" x="0" y="291.58" /><rect fill="rgb(249, 93, 87)" height="86.04" width="249.000" x="0" y="195.98" /><rect fill="rgb(27, 39, 170)" height="86.04" width="514.600" x="0" y="100.38" /><rect fill="rgb(25, 162, 88)" height="86.04" width="16.600" x="0" y="4.78" /></g></g></g></g></g></g></svg>