<?xml version="1.0" standalone="no"?>
<!DOCTYPE svg PUBLIC "-//W3C//DTD SVG 1.1//EN"
"http://www.w3.org/Graphics/SVG/1.1/DTD/svg11.dtd">
<svg height="600" version="1.1" width="800" xmlns="http://www.w3.org/2000/svg"><g><rect fill="#f9f9f9" height="600" width="800" x="0" y="0" /><g transform="translate(40 40)"><g transform="translate(56 0)"><text fill="#333" font-family="Monaco" font-size="16" x="0" y="0">Winning Hill Points Allocation for Ozymandias</text></g><g transform="translate(0 20)"><g transform="translate(56 0)"><g class="axis bottom"><g class="tick"><line stroke="#eee" stroke-width="1" x1="221.3333333333333333333333333" x2="221.3333333333333333333333333" y1="0" y2="482.0" /><text dy="1em" fill="#9c9c9c" font-family="Monaco" text-anchor="middle" x="221.3333333333333333333333333" y="486.0">10</text></g><g class="tick"><line stroke="#eee" stroke-width="1" x1="442.6666666666666666666666667" x2="442.6666666666666666666666667" y1="0" y2="482.0" /><text dy="1em" fill="#9c9c9c" font-family="Monaco" text-anchor="middle" x="442.6666666666666666666666667" y="486.0">20</text></g><g class="tick"><line stroke="#eee" stroke-width="1" x1="664" x2="664" y1="0" y2="482.0" /><text dy="1em" fill="#9c9c9c" font-family="Monaco" text-anchor="middle" x="664" y="486.0">30</text></g><g class="tick"><line stroke="#a8a8a8" stroke-width="1" x1="0" x2="0" y1="0" y2="482.0" /><text dy="1em" fill="#9c9c9c" font-family="Monaco" text-anchor="middle" x="0" y="486.0">0</text></g></g><g class="axis left"><g class="tick"><line stroke="#eee" stroke-width="1" x1="-4" x2="664.0" y1="430.2" y2="430.2" /><text dy="0.32em" fill="#9c9c9c" font-family="Monaco" text-anchor="end" x="-8" y="430.2">Hill 1</text></g><g class="tick"><line stroke="#eee" stroke-width="1" x1="-4" x2="664.0" y1="334.6" y2="334.6" /><text dy="0.32em" fill="#9c9c9c" font-family="Monaco" text-anchor="end" x="-8" y="334.6">Hill 2</text></g><g class="tick"><line stroke="#eee" stroke-width="1" x1="-4" x2="664.0" y1="239.0" y2="239.0" /><text dy="0.32em" fill="#9c9c9c" font-family="Monaco" text-anchor="end" x="-8" y="239.0">Hill 3</text></g><g class="tick"><line stroke="#eee" stroke-width="1" x1="-4" x2="664.0" y1="143.4" y2="143.4" /><text dy="0.32em" fill="#9c9c9c" font-family="Monaco" text-anchor="end" x="-8" y="143.4">Hill 4</text></g><g class="tick"><line stroke="#eee" stroke-width="1" x1="-4" x2="664.0" y1="47.8" y2="47.8" /><text dy="0.32em" fill="#9c9c9c" font-family="Monaco" text-anchor="end" x="-8" y="47.8">Hill 5</text></g></g><g><g class="series bars"><rect fill="rgb(46, 122, 186)" height="86.04" width="22.13333333333333333333333333" x="0" y="387.18" /><rect fill="rgb(189, 210, 37)" height="86.04" width="243.4666666666666666666666667" x="0" y="291.58" /><rect fill="rgb(92, 20, 211)" height="86.04" width="243.4666666666666666666666667" x="0" y="195.98" /><rect fill="rgb(82, 39, 86)" height="86.04" width="553.3333333333333333333333333" x="0" y="100.38" /><rect fill="rgb(210, 60, 63)" height="86.04" width="44.26666666666666666666666667" x="0" y="4.78" /></g></g></g></g></g></g></svg>